<svg width="222" height="242" viewBox="0 0 222 242" fill="none" xmlns="http://www.w3.org/2000/svg">
<path d="M0 29.6231C0 27.7876 1.24919 26.1877 3.02986 25.7425L49.0299 14.2425C51.5544 13.6114 54 15.5208 54 18.1231V172.32C54 174.182 52.7157 175.797 50.9021 176.217L4.90208 186.865C2.39492 187.446 0 185.542 0 182.968V29.6231Z" fill="url(#paint0_linear_85_19)"/>
<path d="M168 16.6231C168 14.7876 169.249 13.1877 171.03 12.7425L217.03 1.24254C219.554 0.61139 222 2.52082 222 5.12311V159.32C222 161.182 220.716 162.797 218.902 163.217L172.902 173.865C170.395 174.446 168 172.542 168 169.968V16.6231Z" fill="url(#paint1_linear_85_19)"/>
<path fill-rule="evenodd" clip-rule="evenodd" d="M63 13C60.7909 13 59 14.7909 59 17V171C59 173.209 60.7909 175 63 175H70L70 133.5C70 110.578 86.5777 52 109.5 52C132.422 52 153 110.578 153 133.5V175H159C161.209 175 163 173.209 163 171V17C163 14.7909 161.209 13 159 13H63ZM135.703 175C136.773 174.044 137.454 172.666 137.454 171.109V152.953C137.454 149.581 135.606 146.647 132.882 145.075L129.478 134.586C128.262 130.841 124.777 128.312 120.837 128.312H102.162C98.2232 128.312 94.7379 130.841 93.5221 134.586L90.1178 145.075C87.3943 146.647 85.5625 149.581 85.5625 152.953V171.109C85.5625 172.666 86.2434 174.044 87.3133 175H94.1867C95.2566 174.044 95.9375 172.666 95.9375 171.109V164.625H127.062V171.109C127.062 172.666 127.743 174.044 128.813 175H135.703ZM98.6934 143.875L100.93 136.985C101.109 136.45 101.595 136.094 102.162 136.094H120.837C121.405 136.094 121.891 136.45 122.07 136.985L124.307 143.875H98.6934ZM99.9855 157.001C99.2558 157.731 98.2662 158.141 97.2344 158.141C96.2025 158.141 95.2129 157.731 94.4833 157.001C93.7537 156.271 93.3438 155.282 93.3438 154.25C93.3438 153.218 93.7537 152.229 94.4833 151.499C95.2129 150.769 96.2025 150.359 97.2344 150.359C98.2662 150.359 99.2558 150.769 99.9855 151.499C100.715 152.229 101.125 153.218 101.125 154.25C101.125 155.282 100.715 156.271 99.9855 157.001ZM128.517 151.499C129.246 152.229 129.656 153.218 129.656 154.25C129.656 155.282 129.246 156.271 128.517 157.001C127.787 157.731 126.797 158.141 125.766 158.141C124.734 158.141 123.744 157.731 123.015 157.001C122.285 156.271 121.875 155.282 121.875 154.25C121.875 153.218 122.285 152.229 123.015 151.499C123.744 150.769 124.734 150.359 125.766 150.359C126.797 150.359 127.787 150.769 128.517 151.499Z" fill="url(#paint2_linear_85_19)"/>
<path d="M12.919 231L3.26705 198.273H13.1747L17.6491 218.408H17.9048L23.2102 198.273H31.0085L36.3139 218.472H36.5696L41.044 198.273H50.9517L41.2997 231H32.7983L27.2372 212.719H26.9815L21.4205 231H12.919ZM53.956 231V206.455H62.777V231H53.956ZM58.3665 203.898C57.1733 203.898 56.1506 203.504 55.2983 202.715C54.446 201.927 54.0199 200.979 54.0199 199.871C54.0199 198.763 54.446 197.815 55.2983 197.026C56.1506 196.238 57.1733 195.844 58.3665 195.844C59.5703 195.844 60.593 196.238 61.4347 197.026C62.2869 197.815 62.7131 198.763 62.7131 199.871C62.7131 200.979 62.2869 201.927 61.4347 202.715C60.593 203.504 59.5703 203.898 58.3665 203.898ZM89.7075 214.445H81.5896C81.547 213.944 81.3712 213.512 81.0622 213.15C80.7533 212.788 80.3538 212.511 79.8637 212.319C79.3843 212.117 78.8517 212.016 78.2657 212.016C77.5093 212.016 76.8595 212.154 76.3161 212.431C75.7728 212.708 75.5065 213.102 75.5171 213.614C75.5065 213.976 75.661 214.311 75.9806 214.62C76.3108 214.929 76.9447 215.169 77.8822 215.339L82.868 216.234C85.3822 216.692 87.2519 217.465 88.477 218.551C89.7128 219.627 90.336 221.071 90.3467 222.882C90.336 224.629 89.814 226.147 88.7806 227.436C87.7579 228.715 86.357 229.706 84.5779 230.409C82.8094 231.101 80.7906 231.447 78.5214 231.447C74.7714 231.447 71.8364 230.68 69.7164 229.146C67.607 227.612 66.4298 225.588 66.1847 223.074H74.9419C75.059 223.852 75.4426 224.453 76.0924 224.88C76.7529 225.295 77.5839 225.503 78.5853 225.503C79.395 225.503 80.0608 225.364 80.5828 225.087C81.1155 224.81 81.3872 224.416 81.3978 223.905C81.3872 223.436 81.1528 223.063 80.6947 222.786C80.2472 222.509 79.5441 222.286 78.5853 222.115L74.2387 221.348C71.7352 220.911 69.8602 220.08 68.6137 218.855C67.3673 217.63 66.7494 216.053 66.76 214.125C66.7494 212.42 67.1968 210.977 68.1024 209.794C69.0186 208.601 70.3236 207.696 72.0175 207.078C73.722 206.449 75.7409 206.135 78.074 206.135C81.6215 206.135 84.4181 206.87 86.4635 208.34C88.5196 209.81 89.6009 211.845 89.7075 214.445ZM105.488 231.447C102.867 231.447 100.609 230.947 98.7123 229.945C96.8266 228.933 95.3724 227.484 94.3497 225.599C93.3376 223.702 92.8316 221.433 92.8316 218.791C92.8316 216.256 93.343 214.04 94.3657 212.143C95.3884 210.247 96.8319 208.772 98.6963 207.717C100.561 206.662 102.761 206.135 105.296 206.135C107.15 206.135 108.828 206.423 110.33 206.998C111.832 207.573 113.116 208.409 114.181 209.507C115.246 210.593 116.067 211.914 116.642 213.47C117.217 215.025 117.505 216.778 117.505 218.727V220.773H95.5802V215.915H109.387C109.376 215.212 109.195 214.594 108.844 214.061C108.503 213.518 108.039 213.097 107.453 212.799C106.878 212.49 106.223 212.335 105.488 212.335C104.774 212.335 104.119 212.49 103.522 212.799C102.926 213.097 102.446 213.512 102.084 214.045C101.733 214.578 101.546 215.201 101.525 215.915V221.156C101.525 221.945 101.69 222.648 102.02 223.266C102.35 223.884 102.824 224.368 103.442 224.72C104.06 225.071 104.806 225.247 105.68 225.247C106.287 225.247 106.841 225.162 107.342 224.991C107.853 224.821 108.29 224.576 108.652 224.256C109.014 223.926 109.28 223.532 109.451 223.074H117.505C117.228 224.778 116.573 226.259 115.539 227.516C114.506 228.763 113.137 229.732 111.432 230.425C109.739 231.107 107.757 231.447 105.488 231.447ZM120.977 231V198.273H135.103C137.532 198.273 139.657 198.715 141.479 199.599C143.301 200.483 144.718 201.756 145.73 203.418C146.742 205.08 147.248 207.072 147.248 209.395C147.248 211.739 146.726 213.715 145.682 215.324C144.648 216.932 143.194 218.147 141.319 218.967C139.455 219.787 137.276 220.197 134.783 220.197H126.346V213.294H132.994C134.038 213.294 134.927 213.166 135.662 212.911C136.408 212.644 136.978 212.223 137.372 211.648C137.777 211.073 137.979 210.322 137.979 209.395C137.979 208.457 137.777 207.696 137.372 207.11C136.978 206.513 136.408 206.076 135.662 205.799C134.927 205.512 134.038 205.368 132.994 205.368H129.862V231H120.977ZM140.153 215.979L148.335 231H138.683L130.692 215.979H140.153ZM151.163 231V206.455H159.984V231H151.163ZM155.574 203.898C154.38 203.898 153.358 203.504 152.505 202.715C151.653 201.927 151.227 200.979 151.227 199.871C151.227 198.763 151.653 197.815 152.505 197.026C153.358 196.238 154.38 195.844 155.574 195.844C156.777 195.844 157.8 196.238 158.642 197.026C159.494 197.815 159.92 198.763 159.92 199.871C159.92 200.979 159.494 201.927 158.642 202.715C157.8 203.504 156.777 203.898 155.574 203.898ZM173.363 231.32C171.616 231.32 170.008 230.862 168.537 229.945C167.078 229.029 165.906 227.639 165.022 225.775C164.148 223.91 163.711 221.561 163.711 218.727C163.711 215.766 164.169 213.358 165.086 211.504C166.013 209.651 167.206 208.292 168.665 207.429C170.135 206.566 171.68 206.135 173.299 206.135C174.514 206.135 175.579 206.348 176.495 206.774C177.412 207.19 178.179 207.749 178.797 208.452C179.415 209.145 179.883 209.906 180.203 210.737H180.331V198.273H189.152V231H180.395V226.973H180.203C179.862 227.804 179.372 228.55 178.733 229.21C178.104 229.86 177.337 230.377 176.432 230.76C175.537 231.133 174.514 231.32 173.363 231.32ZM176.623 224.544C177.433 224.544 178.125 224.31 178.701 223.841C179.287 223.362 179.734 222.69 180.043 221.827C180.363 220.954 180.522 219.92 180.522 218.727C180.522 217.513 180.363 216.474 180.043 215.611C179.734 214.738 179.287 214.072 178.701 213.614C178.125 213.145 177.433 212.911 176.623 212.911C175.814 212.911 175.121 213.145 174.546 213.614C173.981 214.072 173.544 214.738 173.236 215.611C172.937 216.474 172.788 217.513 172.788 218.727C172.788 219.942 172.937 220.986 173.236 221.859C173.544 222.722 173.981 223.388 174.546 223.857C175.121 224.315 175.814 224.544 176.623 224.544ZM205.244 231.447C202.623 231.447 200.364 230.947 198.468 229.945C196.582 228.933 195.128 227.484 194.106 225.599C193.093 223.702 192.587 221.433 192.587 218.791C192.587 216.256 193.099 214.04 194.122 212.143C195.144 210.247 196.588 208.772 198.452 207.717C200.316 206.662 202.516 206.135 205.052 206.135C206.906 206.135 208.584 206.423 210.086 206.998C211.588 207.573 212.872 208.409 213.937 209.507C215.002 210.593 215.823 211.914 216.398 213.47C216.973 215.025 217.261 216.778 217.261 218.727V220.773H195.336V215.915H209.143C209.132 215.212 208.951 214.594 208.6 214.061C208.259 213.518 207.795 213.097 207.209 212.799C206.634 212.49 205.979 212.335 205.244 212.335C204.53 212.335 203.875 212.49 203.278 212.799C202.682 213.097 202.202 213.512 201.84 214.045C201.488 214.578 201.302 215.201 201.281 215.915V221.156C201.281 221.945 201.446 222.648 201.776 223.266C202.106 223.884 202.58 224.368 203.198 224.72C203.816 225.071 204.562 225.247 205.435 225.247C206.043 225.247 206.597 225.162 207.097 224.991C207.609 224.821 208.046 224.576 208.408 224.256C208.77 223.926 209.036 223.532 209.207 223.074H217.261C216.984 224.778 216.329 226.259 215.295 227.516C214.262 228.763 212.893 229.732 211.188 230.425C209.494 231.107 207.513 231.447 205.244 231.447Z" fill="url(#paint3_linear_85_19)"/>
<defs>
<linearGradient id="paint0_linear_85_19" x1="27" y1="13" x2="27" y2="188" gradientUnits="userSpaceOnUse">
<stop stop-color="#10E2FF"/>
<stop offset="1" stop-color="#0496FF"/>
</linearGradient>
<linearGradient id="paint1_linear_85_19" x1="195" y1="0" x2="195" y2="175" gradientUnits="userSpaceOnUse">
<stop stop-color="#10E2FF"/>
<stop offset="1" stop-color="#0496FF"/>
</linearGradient>
<linearGradient id="paint2_linear_85_19" x1="111" y1="13" x2="111" y2="175" gradientUnits="userSpaceOnUse">
<stop stop-color="#10E2FF"/>
<stop offset="1" stop-color="#0496FF"/>
</linearGradient>
<linearGradient id="paint3_linear_85_19" x1="111" y1="188" x2="111" y2="242" gradientUnits="userSpaceOnUse">
<stop stop-color="#10E2FF"/>
<stop offset="1" stop-color="#0496FF"/>
</linearGradient>
</defs>
</svg>
